<svg width="22" height="21" xmlns="http://www.w3.org/2000/svg" xmlns:xlink="http://www.w3.org/1999/xlink" xmlns:svgjs="http://svgjs.com/svgjs" viewBox="0.309 0 21.382 21" fill="#e4e4e4"><svg xmlns="http://www.w3.org/2000/svg" width="22" height="21" viewBox="1.636 2 20.364 20"><path paint-order="stroke fill markers" fill-rule="evenodd" d="M19.454 22H4.182c-1.406 0-2.546-1.12-2.546-2.5v-15c0-1.38 1.14-2.5 2.546-2.5h15.272C20.86 2 22 3.12 22 4.5v15c0 1.38-1.14 2.5-2.546 2.5zM11.818 8.125a3.947 3.947 0 0 0-3.578 2.25h-.004c-.006.014-.01.029-.017.042-.037.083-.07.167-.102.252-.015.04-.032.08-.046.121a3.85 3.85 0 0 0-.075.266c-.011.041-.024.082-.033.125-.02.094-.035.19-.049.287-.005.04-.014.077-.018.117a3.847 3.847 0 0 0-.023.415c0 2.14 1.766 3.875 3.945 3.875 2.18 0 3.946-1.735 3.946-3.875 0-.14-.009-.279-.024-.415-.004-.04-.012-.078-.018-.117a3.858 3.858 0 0 0-.049-.287c-.009-.043-.022-.084-.032-.125a3.788 3.788 0 0 0-.076-.266l-.045-.121a3.798 3.798 0 0 0-.103-.252c-.006-.013-.01-.028-.017-.042h-.004a3.947 3.947 0 0 0-3.578-2.25zM19.71 5.25c0-.553-.456-1-1.018-1h-2.036a1.01 1.01 0 0 0-1.019 1v2c0 .552.456 1 1.019 1h2.036a1.01 1.01 0 0 0 1.018-1v-2zm0 5.125h-1.877c.145.517.222 1.062.222 1.625 0 3.382-2.792 6.125-6.236 6.125S5.582 15.382 5.582 12c0-.563.077-1.108.222-1.625H3.927v8.375c0 .552.456 1 1.018 1h13.746a1.01 1.01 0 0 0 1.018-1v-8.375z"/></svg></svg>