<svg width="20" height="14" xmlns="http://www.w3.org/2000/svg" xmlns:xlink="http://www.w3.org/1999/xlink" xmlns:svgjs="http://svgjs.com/svgjs" viewBox="0 0.158 20 13.684" fill="#323232"><svg xmlns="http://www.w3.org/2000/svg" width="20" height="14" viewBox="1 2 19 13"><path paint-order="stroke fill markers" fill-rule="evenodd" d="M13.95 7.832l5.785-5.576a.88.88 0 0 1 .265.63v11.227a.879.879 0 0 1-.24.602l-5.81-6.883zM1.296 2.23A.887.887 0 0 1 1.891 2h17.218c.23 0 .437.088.595.23L10.5 9.386 1.296 2.23zM1.24 14.715a.879.879 0 0 1-.24-.602V2.886a.88.88 0 0 1 .265-.63L7.05 7.832l-5.81 6.883zm9.26-3.556l2.415-2.328 6.805 5.925a.888.888 0 0 1-.61.244H1.89a.888.888 0 0 1-.61-.244l6.805-5.925 2.415 2.328z"/></svg></svg>