<svg width="15" height="22" xmlns="http://www.w3.org/2000/svg" xmlns:xlink="http://www.w3.org/1999/xlink" xmlns:svgjs="http://svgjs.com/svgjs" viewBox="0.168 0 14.664 22" fill="#323232"><svg xmlns="http://www.w3.org/2000/svg" width="15" height="22" viewBox="4.003 2.002 13.997 20.998"><path paint-order="stroke fill markers" fill-rule="evenodd" d="M9.599 2.965l.993 2.073c.346.723.108 1.652-.532 2.076l-1.159.767a.578.578 0 0 0-.2.707l2.012 4.2 2.082 4.344c.058.12.163.216.288.271.205.093 1.063-.013 1.883-.075l.234-.018c.82-.062 1.732.486 2.04 1.224l.637 1.534c.308.739.021 1.728-.702 2.106-5.286 2.763-7.302-2.288-7.302-2.288l-2.649-5.528-2.58-5.384s-2.679-4.753 2.91-6.881c.765-.291 1.699.15 2.045.872z"/></svg></svg>