<svg width="17" height="22" xmlns="http://www.w3.org/2000/svg" xmlns:xlink="http://www.w3.org/1999/xlink" xmlns:svgjs="http://svgjs.com/svgjs" viewBox="0.119 0 16.762 22" fill="#323232"><svg xmlns="http://www.w3.org/2000/svg" width="17" height="22" viewBox="1 2 16 21"><path paint-order="stroke fill markers" fill-rule="evenodd" d="M9 23S1 14.224 1 9.875 4.582 2 9 2s8 3.526 8 7.875S9 23 9 23zM9 4.625c-2.945 0-5.333 2.35-5.333 5.25s2.388 5.25 5.333 5.25c2.945 0 5.333-2.35 5.333-5.25S11.945 4.625 9 4.625zM9 12.5c-1.473 0-2.667-1.175-2.667-2.625S7.527 7.25 9 7.25c1.473 0 2.667 1.175 2.667 2.625S10.473 12.5 9 12.5z"/></svg></svg>