<svg width="22" height="19" xmlns="http://www.w3.org/2000/svg" xmlns:xlink="http://www.w3.org/1999/xlink" xmlns:svgjs="http://svgjs.com/svgjs" viewBox="0 0.731 22 17.538" fill="#e4e4e4"><svg xmlns="http://www.w3.org/2000/svg" width="22" height="19" viewBox="1 1.875 20.364 16.233"><path paint-order="stroke fill markers" fill-rule="evenodd" d="M14.85 1.876c1.62-.028 2.48.55 3.303 1.287.698-.059 1.606-.442 2.14-.708l.52-.28c-.305.81-.72 1.445-1.355 1.926-.142.107-.282.252-.459.32v.01c.907-.01 1.654-.411 2.365-.629v.01c-.373.583-.878 1.173-1.417 1.597l-.652.509c.012.942-.015 1.842-.194 2.634-1.043 4.606-3.808 7.733-8.184 9.072-1.572.481-4.111.679-5.912.24-.892-.218-1.699-.463-2.456-.789-.42-.18-.81-.376-1.182-.599L1 16.257c.406.012.881.122 1.335.05.41-.065.814-.048 1.193-.13.945-.203 1.784-.473 2.507-.888.35-.201.882-.438 1.131-.729a3.607 3.607 0 0 1-1.243-.219c-1.352-.469-2.138-1.33-2.65-2.625.41.044 1.589.149 1.865-.08-.516-.028-1.011-.32-1.366-.539-1.087-.668-1.974-1.789-1.967-3.513l.428.2c.273.113.55.174.877.24.137.028.413.107.57.05h-.02c-.21-.241-.553-.401-.764-.66-.698-.85-1.351-2.161-.938-3.722.105-.396.271-.745.448-1.068l.02.01c.082.167.263.29.378.43.356.433.796.823 1.243 1.167 1.526 1.172 2.9 1.892 5.107 2.425.56.135 1.206.239 1.875.24-.188-.537-.128-1.407.02-1.926.372-1.308 1.18-2.25 2.365-2.755.283-.12.597-.208.927-.28l.51-.06z"/></svg></svg>